<svg width="280" height="280" viewBox="0 0 280 280" fill="none" xmlns="http://www.w3.org/2000/svg">
<g clip-path="url(#clip0_1042_1736)">
<path d="M278.456 128.757L253.805 40.6685C252.839 37.216 251 34.0707 248.465 31.5357C245.93 29.0006 242.785 27.1614 239.332 26.1952L151.242 1.54436C143.885 -0.514135 136.104 -0.514135 128.748 1.54436L40.6713 26.1917C37.2183 27.1574 34.0723 28.9964 31.5366 31.5315C29.001 34.0665 27.1612 37.2122 26.1948 40.665L1.54433 128.757C-0.513476 136.113 -0.513476 143.892 1.54433 151.248L26.1843 239.339C27.1517 242.794 28.9931 245.94 31.5306 248.475C34.0682 251.01 37.2163 252.849 40.6713 253.813L128.765 278.457C136.122 280.515 143.902 280.515 151.259 278.457L239.343 253.813C242.795 252.846 245.941 251.006 248.476 248.471C251.011 245.935 252.85 242.789 253.816 239.336L278.456 151.248C280.515 143.892 280.515 136.112 278.456 128.757ZM255.628 149.842L149.837 255.635C148.545 256.927 147.011 257.952 145.323 258.652C143.635 259.351 141.825 259.711 139.998 259.711C138.171 259.711 136.362 259.351 134.674 258.652C132.986 257.952 131.452 256.927 130.16 255.635L24.3687 149.842C23.0767 148.55 22.0518 147.017 21.3525 145.329C20.6533 143.64 20.2934 141.831 20.2934 140.004C20.2934 138.177 20.6533 136.368 21.3525 134.679C22.0518 132.991 23.0767 131.458 24.3687 130.166L130.16 24.3691C131.452 23.077 132.986 22.0521 134.674 21.3529C136.362 20.6536 138.171 20.2937 139.998 20.2937C141.825 20.2937 143.635 20.6536 145.323 21.3529C147.011 22.0521 148.545 23.077 149.837 24.3691L255.628 130.166C256.92 131.458 257.945 132.991 258.644 134.679C259.343 136.368 259.703 138.177 259.703 140.004C259.703 141.831 259.343 143.64 258.644 145.329C257.945 147.017 256.92 148.55 255.628 149.842V149.842Z" fill="#242424"/>
</g>
<defs>
<clipPath id="clip0_1042_1736">
<rect width="280" height="280" fill="white"/>
</clipPath>
</defs>
</svg>
