<!DOCTYPE svg PUBLIC "-//W3C//DTD SVG 1.1//EN" "http://www.w3.org/Graphics/SVG/1.1/DTD/svg11.dtd">
<!-- Uploaded to: SVG Repo, www.svgrepo.com, Transformed by: SVG Repo Mixer Tools -->
<svg width="800px" height="800px" viewBox="-12.8 -12.8 89.60 89.60" xmlns="http://www.w3.org/2000/svg" stroke-width="3" stroke="#ffffff" fill="none">
<g id="SVGRepo_bgCarrier" stroke-width="0">
<rect x="-12.8" y="-12.8" width="89.60" height="89.60" rx="44.8" fill="#0B97E6" strokewidth="0"/>
</g>
<g id="SVGRepo_tracerCarrier" stroke-linecap="round" stroke-linejoin="round"/>
<g id="SVGRepo_iconCarrier">
<path d="M39,34,31.05,23.52l-2-2.59-3.88-5.22L22,18.15,14.66,23.9a2.28,2.28,0,0,0,0,3.11c1.14,1.19,2.46,1.33,3.17.78l6.33-5.37,3.21,3.95-8.9,6.94" stroke-linecap="square"/>
<circle cx="42.38" cy="21.91" r="6.1" stroke-linecap="square"/>
<path d="M4.79,41.15c3.89,0,3.89,4,7.77,4s3.89-4,7.77-4,3.89,4,7.77,4,3.89-4,7.78-4,3.89,4,7.77,4,3.89-4,7.78-4,3.89,4,7.78,4" stroke-linecap="square"/>
<path d="M4.79,33.06c3.89,0,3.89,4,7.77,4s3.89-4,7.77-4,3.89,4,7.77,4,3.89-4,7.78-4,3.89,4,7.77,4,3.89-4,7.78-4,3.89,4,7.78,4" stroke-linecap="square"/>
</g>
</svg>