<!DOCTYPE svg PUBLIC "-//W3C//DTD SVG 1.1//EN" "http://www.w3.org/Graphics/SVG/1.1/DTD/svg11.dtd">
<!-- Uploaded to: SVG Repo, www.svgrepo.com, Transformed by: SVG Repo Mixer Tools -->
<svg width="800px" height="800px" viewBox="-12.8 -12.8 89.60 89.60" xmlns="http://www.w3.org/2000/svg" stroke-width="3" stroke="#ffffff" fill="none">
<g id="SVGRepo_bgCarrier" stroke-width="0">
<rect x="-12.8" y="-12.8" width="89.60" height="89.60" rx="44.8" fill="#0B97E6" strokewidth="0"/>
</g>
<g id="SVGRepo_tracerCarrier" stroke-linecap="round" stroke-linejoin="round"/>
<g id="SVGRepo_iconCarrier">
<circle cx="33.52" cy="39.9" r="20.42" stroke-linecap="round"/>
<circle cx="33.52" cy="39.9" r="15.22" stroke-linecap="round"/>
<path d="M33.28,30.49,36,36a.1.1,0,0,0,.08.05l6,.88a.1.1,0,0,1,.06.17l-4.38,4.27a.08.08,0,0,0,0,.09l1,6a.09.09,0,0,1-.14.1l-5.42-2.84a.08.08,0,0,0-.09,0l-5.41,2.84a.1.1,0,0,1-.15-.1l1-6a.14.14,0,0,0,0-.09l-4.38-4.27a.1.1,0,0,1,.05-.17L30.32,36a.08.08,0,0,0,.07-.05l2.71-5.49A.1.1,0,0,1,33.28,30.49Z" stroke-linecap="round"/>
<polyline points="21.48 23.75 9.89 3.67 19.97 3.67 29.04 19.38 19.97 3.67"/>
<polyline points="44.82 22.89 55.92 3.67 45.79 3.67 36.77 19.38" stroke-linecap="round"/>
</g>
</svg>