<!DOCTYPE svg PUBLIC "-//W3C//DTD SVG 1.1//EN" "http://www.w3.org/Graphics/SVG/1.1/DTD/svg11.dtd">
<!-- Uploaded to: SVG Repo, www.svgrepo.com, Transformed by: SVG Repo Mixer Tools -->
<svg fill="#E10098" width="800px" height="800px" viewBox="-2.4 -2.4 28.80 28.80" xmlns="http://www.w3.org/2000/svg">
<g id="SVGRepo_bgCarrier" stroke-width="0">
<path transform="translate(-2.4, -2.4), scale(0.8999999999999999)" d="M16,28.1295015392825C17.99246870654777,27.5616630453937,19.787894829173876,26.701249503654537,21.62135861394927,25.736478726925096C23.52723842201845,24.733602554484573,25.62032207929799,24.006712492646027,26.991333235866087,22.345849202480167C28.47736481748605,20.54564846004579,29.44415699819899,18.3244377420492,29.658637202344835,16C29.883082568005772,13.567564423728525,29.790321082916,10.8180787335017,28.228318030879098,8.939977293135602C26.68104808987997,7.079590464162248,23.744458024574342,7.420756110520875,21.59657771349885,6.306443051712346C19.575318755290517,5.257820723572712,18.18947432823619,3.2215059061117306,16,2.5959671549499035C13.453923649684103,1.8685462393448775,10.451290575217996,1.0951525112087013,8.192395178135488,2.476831763110903C5.929025606187672,3.8612476953342756,5.2100265428441395,6.882573306812775,4.72674462390321,9.491382973967113C4.320357772540344,11.685104495275345,5.800422740070969,13.771827771338538,5.687228634953499,15.999999999999998C5.56516666568386,18.402731925130624,3.613474698016533,20.535223449997876,4.045469971055198,22.901951130246736C4.522797878618489,25.51703801172796,5.728826873669902,28.506544040599223,8.164432669989758,29.571600721704534C10.639857529756263,30.654069727753107,13.40170526307491,28.86999586436081,16,28.1295015392825" fill="#7d0858" strokewidth="0"/>
</g>
<g id="SVGRepo_tracerCarrier" stroke-linecap="round" stroke-linejoin="round"/>
<g id="SVGRepo_iconCarrier">
<path d="m12.731 2.751 4.935 2.849c.39-.41.94-.664 1.549-.664 1.181 0 2.138.957 2.138 2.138 0 1.001-.688 1.842-1.617 2.074l-.015.003v5.7c.949.233 1.642 1.076 1.642 2.081 0 1.182-.958 2.14-2.14 2.14-.637 0-1.208-.278-1.6-.719l-.002-.002-4.905 2.832c.069.202.109.434.109.675 0 1.182-.958 2.14-2.14 2.14s-2.14-.958-2.14-2.14c0-.216.032-.425.092-.621l-.004.015-4.941-2.844c-.39.407-.939.66-1.546.66-1.182 0-2.14-.958-2.14-2.14 0-1.002.689-1.844 1.619-2.076l.015-.003v-5.699c-.951-.231-1.646-1.076-1.646-2.082 0-1.182.958-2.14 2.14-2.14.396 0 .768.108 1.086.296l-.01-.005c.184.106.342.231.479.376l.001.001 4.938-2.85c-.056-.182-.088-.391-.088-.608 0-1.181.958-2.139 2.139-2.139s2.139.958 2.139 2.139c0 .219-.033.43-.094.629l.004-.015zm-.515.877c-.019.021-.037.039-.057.057l-.001.001 6.461 11.19c.026-.009.056-.016.082-.023v-5.707c-.938-.238-1.621-1.076-1.621-2.072 0-.183.023-.361.066-.531l-.003.015c.006-.024.012-.049.019-.072zm-3.015.059-.06-.06-4.946 2.852c.053.177.084.381.084.592 0 .969-.645 1.787-1.53 2.049l-.015.004-.076.021v5.708l.084.023 6.461-11.19zm2.076.507c-.179.053-.384.084-.596.084s-.417-.031-.611-.088l.015.004-6.46 11.189c.286.276.496.629.597 1.026l.003.015h12.911c.102-.413.313-.768.599-1.043l.001-.001-6.456-11.186zm.986 16.227 4.917-2.838c-.015-.047-.027-.094-.038-.142h-12.92l-.021.083 4.939 2.852c.39-.403.936-.653 1.54-.653.626 0 1.189.268 1.581.696l.001.002z"/>
</g>
</svg>