<!DOCTYPE svg PUBLIC "-//W3C//DTD SVG 1.1//EN" "http://www.w3.org/Graphics/SVG/1.1/DTD/svg11.dtd">
<!-- Uploaded to: SVG Repo, www.svgrepo.com, Transformed by: SVG Repo Mixer Tools -->
<svg width="800px" height="800px" viewBox="-3.2 -3.2 38.40 38.40" fill="none" xmlns="http://www.w3.org/2000/svg">
<g id="SVGRepo_bgCarrier" stroke-width="0">
<path transform="translate(-3.2, -3.2), scale(1.2)" d="M16,27.130079915126167C19.500097083230816,27.00788186621426,23.299946628713112,28.2189207423671,26.048794005729082,26.048794005729086C28.995430165682727,23.722519376105428,30.134452207010582,19.754051735201283,30.098204710417324,16C30.06230354584778,12.28181690282279,28.65996888124883,8.586204659019447,25.856596184811103,6.1434038151889006C23.204539997280634,3.8324570398929594,19.448503428669515,3.021069804401485,16,3.715116721060541C13.042419851936721,4.310360259306727,11.553618088121599,7.287407014046156,9.446171250971965,9.446171250971961C7.384571032108584,11.557972481194257,4.705726692347278,13.132616395552825,4.007148734397358,15.999999999999998C3.1176557725770264,19.651013470965566,2.469762700507143,24.219594239966277,5.224160568139414,26.775839431860582C7.9626367647781855,29.3173083652476,12.266191873032234,27.260437461581915,16,27.130079915126167" fill="#ec9a7e" strokewidth="0"/>
</g>
<g id="SVGRepo_tracerCarrier" stroke-linecap="round" stroke-linejoin="round" stroke="#CCCCCC" stroke-width="0.192"/>
<g id="SVGRepo_iconCarrier"> <path d="M6 28L4 3H28L26 28L16 31L6 28Z" fill="#E44D26"/> <path d="M26 5H16V29.5L24 27L26 5Z" fill="#F16529"/> <path d="M9.5 17.5L8.5 8H24L23.5 11H11.5L12 14.5H23L22 24L16 26L10 24L9.5 19H12.5L13 21.5L16 22.5L19 21.5L19.5 17.5H9.5Z" fill="white"/> </g>
</svg>