<!DOCTYPE svg PUBLIC "-//W3C//DTD SVG 1.1//EN" "http://www.w3.org/Graphics/SVG/1.1/DTD/svg11.dtd">
<!-- Uploaded to: SVG Repo, www.svgrepo.com, Transformed by: SVG Repo Mixer Tools -->
<svg fill="#f5de19" version="1.1" xmlns="http://www.w3.org/2000/svg" xmlns:xlink="http://www.w3.org/1999/xlink" width="800px" height="800px" viewBox="-51.2 -51.2 614.40 614.40" enable-background="new 0 0 512 512" xml:space="preserve">
<g id="SVGRepo_bgCarrier" stroke-width="0">
<path transform="translate(-51.2, -51.2), scale(19.2)" d="M16,28.299706048606073C17.892336144512807,28.638513682682124,19.926704657314538,28.584151553665237,21.670811552158725,27.77556152398717C23.420672078489957,26.964304037934376,24.267807368072518,25.00824018153305,25.753264735244528,23.7779690810827C27.626049753208488,22.226909228490744,31.18255921777783,21.955740730836585,31.591960956293413,19.558763341219972C32.01273109098979,17.09522592989861,28.430588521268707,15.69986234288227,27.531267951810488,13.368063338554986C26.793223654337055,11.454428738787355,28.430070911451885,8.664709487358868,26.874723635779524,7.327697289015326C25.183867841560172,5.874198859519018,22.22560607053164,8.203732081254511,20.27243271600485,7.128202049800269C18.14498328184678,5.956705545645008,18.239595101172846,2.27894581516559,16.000000000000004,1.3394465139683547C13.956410836839728,0.4821707547394328,11.279241688991137,1.2325411712788046,9.564336797452228,2.6362076587763017C7.821489115515695,4.062745594505026,8.066291093533557,6.821870343918337,6.92778103118421,8.76514679425524C5.972224521493367,10.396147277831604,4.215647441101217,11.414605160265374,3.4174310242884953,13.128110740229893C2.534181164188692,15.024154885534639,2.0313504106423053,17.08661945387923,2.077171471922288,19.177794756586753C2.127672997313844,21.482576437713277,1.8379479736330944,24.447128394889077,3.6953692126018716,25.812615612973147C5.744635310346641,27.319137991535516,8.736437018641382,25.402215360130796,11.229463212974824,25.90612171139322C12.995451246075111,26.263074473524384,14.226499771076716,27.982175033655487,16,28.299706048606073" fill="#7a6e00" strokewidth="0"/>
</g>
<g id="SVGRepo_tracerCarrier" stroke-linecap="round" stroke-linejoin="round"/>
<g id="SVGRepo_iconCarrier"> <g id="5151e0c8492e5103c096af88a51e7e7e"> <path display="inline" d="M218.195,257.521c0,64.719,4.624,119.1-27.309,151.283c-17.961,18.105-46.301,28.772-81.17,28.772 c-57.192,0-88.947-27.862-109.215-66.416c19.512-12.459,39.452-24.502,59.775-36.154c8.292,23.188,36.291,49.258,67.888,33.21 c20.027-10.18,17.715-41.04,17.715-74.537c0-69.549,0-149.78,0-212.528c-0.063-1.044-0.125-2.087,0.732-2.214 c23.866,0,47.728,0,71.585,0C218.195,134.832,218.195,198.069,218.195,257.521z M399.727,215.462 c-18.247-7.814-40.928-17.058-46.488-33.952c-6.233-18.934,4.396-34.533,16.231-39.841c26.023-11.688,57.038,7.556,63.463,27.301 c19.583-11.657,39.103-23.384,56.826-36.896c-20.826-34.584-51.354-59.342-107.003-57.561 c-30.64,0.979-53.657,10.652-70.841,25.088c-16.771,14.085-29.721,33.854-31.737,61.989 c-6.025,84.212,56.988,105.708,110.695,129.137c16.93,7.385,35.751,14.842,43.54,29.517c16.061,30.282-12.389,50.26-36.898,52.397 c-39.336,3.427-65.858-19.587-81.175-43.54c-19.133,11.86-39.938,22.045-58.298,34.683c25.537,44.908,67.409,73.98,132.831,73.793 c66.74-0.188,116.219-32.366,120.281-92.977C516.677,262.216,454.956,239.105,399.727,215.462z"> </path> </g> </g>
</svg>