<!DOCTYPE svg PUBLIC "-//W3C//DTD SVG 1.1//EN" "http://www.w3.org/Graphics/SVG/1.1/DTD/svg11.dtd">
<!-- Uploaded to: SVG Repo, www.svgrepo.com, Transformed by: SVG Repo Mixer Tools -->
<svg width="800px" height="800px" viewBox="-3.2 -3.2 38.40 38.40" xmlns="http://www.w3.org/2000/svg" xmlns:xlink="http://www.w3.org/1999/xlink" fill="#000000">
<g id="SVGRepo_bgCarrier" stroke-width="0">
<path transform="translate(-3.2, -3.2), scale(1.2)" d="M16,30.697035375394318C19.305035793202265,30.52991559308952,20.190033474741305,25.94276257926048,22.04135806411058,23.199810177051788C23.253522343315122,21.40384800995907,23.935861633891246,19.52068005185691,24.864619746530614,17.563071635034383C26.336438881182854,14.460815528923318,30.161297818544384,11.720256597861653,29.024926162938947,8.480055373652204C27.920930961028432,5.332170975879227,23.390486184246,5.446570617667259,20.235367926409037,4.363422259108832C17.162794985564407,3.3086116100434952,13.84953903919266,0.7141660910558005,11.012273082276305,2.296332919148142C8.150613642528969,3.8921024760445064,9.15550638144156,8.286387536103781,7.828305176050447,11.282069793657248C6.738133554300408,13.742742502285841,3.6647396700955506,15.44533837843116,4.003896935257872,18.11523663367354C4.345258249761755,20.802485504975074,7.5540001715678455,21.8773160298843,9.423265910630258,23.837846478543195C11.67704519902046,26.201663900062968,12.73810649384561,30.861973659503423,16,30.697035375394318" fill="#427044" strokewidth="0"/>
</g>
<g id="SVGRepo_tracerCarrier" stroke-linecap="round" stroke-linejoin="round"/>
<g id="SVGRepo_iconCarrier">
<defs>
<linearGradient id="a" x1="-645.732" y1="839.188" x2="-654.59" y2="839.25" gradientTransform="matrix(-0.977, -0.323, -0.29, 0.877, -375.944, -928.287)" gradientUnits="userSpaceOnUse">
<stop offset="0.231" stop-color="#999875"/>
<stop offset="0.563" stop-color="#9b9977"/>
<stop offset="0.683" stop-color="#a09f7e"/>
<stop offset="0.768" stop-color="#a9a889"/>
<stop offset="0.837" stop-color="#b7b69a"/>
<stop offset="0.896" stop-color="#c9c7b0"/>
<stop offset="0.948" stop-color="#deddcb"/>
<stop offset="0.994" stop-color="#f8f6eb"/>
<stop offset="1" stop-color="#fbf9ef"/>
</linearGradient>
<linearGradient id="b" x1="-644.287" y1="823.405" x2="-657.028" y2="845.476" gradientTransform="matrix(-0.977, -0.323, -0.29, 0.877, -375.944, -928.287)" gradientUnits="userSpaceOnUse">
<stop offset="0" stop-color="#48a547"/>
<stop offset="1" stop-color="#3f9143"/>
</linearGradient>
<linearGradient id="c" x1="-643.386" y1="839.485" x2="-652.418" y2="833.417" gradientTransform="matrix(-0.977, -0.323, -0.29, 0.877, -375.944, -928.287)" gradientUnits="userSpaceOnUse">
<stop offset="0" stop-color="#41a247"/>
<stop offset="0.352" stop-color="#4ba74b"/>
<stop offset="0.956" stop-color="#67b554"/>
<stop offset="1" stop-color="#69b655"/>
</linearGradient>
</defs>
<title>file_type_mongo</title>
<path d="M16.62,30l-.751-.249s.1-3.8-1.275-4.067c-.9-1.048.133-44.741,3.423-.149a2.712,2.712,0,0,0-1.333,1.523A14.1,14.1,0,0,0,16.62,30Z" style="fill:url(#a)"/>
<path d="M17.026,26.329a13.223,13.223,0,0,0,5-13.225C20.556,6.619,17.075,4.487,16.7,3.673a9.792,9.792,0,0,1-.825-1.6l.277,18.069S15.578,25.664,17.026,26.329Z" style="fill:url(#b)"/>
<path d="M15.487,26.569S9.366,22.4,9.72,15.025A15.54,15.54,0,0,1,15.239,3.377,1.725,1.725,0,0,0,15.846,2c.381.82.319,12.243.359,13.579C16.36,20.776,15.916,25.588,15.487,26.569Z" style="fill:url(#c)"/>
</g>
</svg>