<!DOCTYPE svg PUBLIC "-//W3C//DTD SVG 1.1//EN" "http://www.w3.org/Graphics/SVG/1.1/DTD/svg11.dtd">
<!-- Uploaded to: SVG Repo, www.svgrepo.com, Transformed by: SVG Repo Mixer Tools -->
<svg width="800px" height="800px" viewBox="-4.09 -4.09 49.10 49.10" xmlns="http://www.w3.org/2000/svg" fill="#000000">
<g id="SVGRepo_bgCarrier" stroke-width="0">
<path transform="translate(-4.09, -4.09), scale(1.534375)" d="M16,26.9400334097445C17.920579062530507,27.092755090359237,19.89751505814352,28.532607795580585,21.651707247404495,27.73589102639838C23.397159164143645,26.943143903032635,23.306562831433222,24.242674574799945,24.74047453127318,22.970295844894764C26.559947437068782,21.355790136327432,30.361191541634945,21.77006047839862,31.015283104330834,19.427140384684186C31.65299665719927,17.14288542366408,28.373776544499503,15.563483768168362,27.41371533062498,13.394893957238036C26.656626628165448,11.684779203723178,26.67845666057495,9.77767496689803,25.97600534979911,8.044401206186713C25.10179709906508,5.887323271886777,24.98997433865506,2.6424527259016233,22.771157463669446,1.9395466471299283C20.395063402486976,1.186816226621786,18.47417947765693,4.58263741522892,16,4.884070634841919C13.92978278608181,5.13628848957919,12.034776976624032,3.144954870099292,9.979350652844703,3.497992809372752C7.850511356286763,3.863640086342172,6.073926891121113,5.342100424645177,4.53120297690297,6.8539395715863805C2.8907222018343663,8.46157852285661,0.8819202469931474,10.229565353917222,0.7692747641854059,12.523686354695938C0.653533678485502,14.880851939491395,3.3232505936192793,16.474935358695696,3.9470353142582066,18.751010536575485C4.536057091839657,20.90024215900216,2.8497599623185454,23.637541324883863,4.282859489662481,25.344107750790158C5.728527598311767,27.065641119653122,8.537720425393454,26.566820199215258,10.765182632773257,26.870210270194793C12.516263217358997,27.108715085714554,14.238312334485125,26.799946544150334,16,26.9400334097445" fill="#01651a" strokewidth="0"/>
</g>
<g id="SVGRepo_tracerCarrier" stroke-linecap="round" stroke-linejoin="round"/>
<g id="SVGRepo_iconCarrier"> <defs> <linearGradient id="b" x1="271.97" x2="211.104" y1="217.606" y2="341.772" gradientUnits="userSpaceOnUse"> <stop offset=".3" stop-color="#3e863d"/> <stop offset=".5" stop-color="#55934f"/> <stop offset=".8" stop-color="#5aad45"/> </linearGradient> <linearGradient id="d" x1="186.484" x2="297.349" y1="321.381" y2="239.465" gradientUnits="userSpaceOnUse"> <stop offset=".57" stop-color="#3e863d"/> <stop offset=".72" stop-color="#619857"/> <stop offset="1" stop-color="#76ac64"/> </linearGradient> <linearGradient id="f" x1="197.051" x2="288.72" y1="279.652" y2="279.652" gradientUnits="userSpaceOnUse"> <stop offset=".16" stop-color="#6bbf47"/> <stop offset=".38" stop-color="#79b461"/> <stop offset=".47" stop-color="#75ac64"/> <stop offset=".7" stop-color="#659e5a"/> <stop offset=".9" stop-color="#3e863d"/> </linearGradient> <clipPath id="a"> <path d="m239.03 226.605-42.13 24.317a5.085 5.085 0 0 0-2.546 4.406v48.668c0 1.817.968 3.496 2.546 4.406l42.133 24.336a5.1 5.1 0 0 0 5.09 0l42.126-24.336a5.096 5.096 0 0 0 2.54-4.406v-48.668c0-1.816-.97-3.496-2.55-4.406l-42.12-24.317a5.123 5.123 0 0 0-5.1 0"/> </clipPath> <clipPath id="c"> <path d="M195.398 307.086c.403.523.907.976 1.5 1.316l36.14 20.875 6.02 3.46c.9.52 1.926.74 2.934.665.336-.027.672-.09 1-.183l44.434-81.36c-.34-.37-.738-.68-1.184-.94l-27.586-15.93-14.582-8.39a5.318 5.318 0 0 0-1.32-.53zm0 0"/> </clipPath> <clipPath id="e"> <path d="M241.066 225.953a5.14 5.14 0 0 0-2.035.652l-42.01 24.247 45.3 82.51c.63-.09 1.25-.3 1.81-.624l42.13-24.336a5.105 5.105 0 0 0 2.46-3.476l-46.18-78.89a5.29 5.29 0 0 0-1.03-.102l-.42.02"/> </clipPath> </defs> <g clip-path="url(#a)" transform="translate(-68.564 -79.701) scale(.35278)"> <path fill="url(#b)" d="m331.363 246.793-118.715-58.19-60.87 124.174L270.49 370.97zm0 0"/> </g> <g clip-path="url(#c)" transform="translate(-68.564 -79.701) scale(.35278)"> <path fill="url(#d)" d="m144.07 264.004 83.825 113.453 110.86-81.906-83.83-113.45zm0 0"/> </g> <g clip-path="url(#e)" transform="translate(-68.564 -79.701) scale(.35278)"> <path fill="url(#f)" d="M197.02 225.934v107.43h91.683v-107.43zm0 0"/> </g> </g>
</svg>